<?xml version="1.0" standalone="no"?>
<!DOCTYPE svg PUBLIC "-//W3C//DTD SVG 20010904//EN"
 "http://www.w3.org/TR/2001/REC-SVG-20010904/DTD/svg10.dtd">
<svg version="1.0" xmlns="http://www.w3.org/2000/svg"
 width="640.000000pt" height="640.000000pt" viewBox="0 0 640.000000 640.000000"
 preserveAspectRatio="xMidYMid meet">
<metadata>
Created by potrace 1.14, written by Peter Selinger 2001-2017
</metadata>
<g transform="translate(0.000000,640.000000) scale(0.100000,-0.100000)"
fill="#000000" stroke="none">
<path d="M1508 4103 c-6 -7 -14 -50 -19 -95 -5 -46 -13 -108 -18 -138 -5 -30
-12 -102 -16 -160 -3 -58 -11 -145 -16 -195 -6 -49 -14 -126 -19 -170 -5 -44
-16 -118 -24 -165 -9 -47 -16 -103 -16 -124 0 -60 -13 -34 -36 74 -3 13 -9 29
-13 35 -9 11 -21 83 -25 160 -4 48 -22 144 -34 175 -3 8 -6 17 -7 20 -1 3 -5
59 -9 125 -4 66 -13 128 -20 137 -21 29 -59 25 -101 -9 -21 -17 -55 -35 -75
-38 -64 -11 -118 -54 -95 -77 5 -5 61 3 121 18 27 7 28 6 15 -10 -13 -15 -13
-19 0 -26 11 -7 14 -31 13 -102 -1 -75 -7 -113 -33 -193 -18 -55 -37 -118 -43
-140 -5 -22 -14 -49 -18 -60 -89 -225 -196 -324 -369 -339 -80 -7 -86 -9 -77
-24 7 -12 176 -13 176 -2 0 7 12 11 63 25 4 2 14 3 23 4 8 0 13 5 10 9 -3 5 4
16 15 25 27 23 36 21 14 -3 -10 -11 -13 -20 -7 -20 7 0 12 4 12 8 0 4 15 14
33 21 31 13 31 13 9 20 -23 6 -23 6 9 36 26 25 30 26 20 8 -10 -19 -9 -23 3
-23 7 0 16 7 20 15 3 8 12 15 21 15 20 0 85 134 85 176 0 17 6 37 14 43 8 7
17 24 21 38 3 15 14 33 23 40 14 10 14 12 2 13 -12 0 -11 3 3 11 9 5 17 18 18
27 0 9 9 35 19 57 l18 40 7 -30 c4 -16 16 -55 25 -85 10 -30 21 -84 25 -120 3
-36 10 -81 15 -100 5 -19 14 -62 20 -95 7 -33 18 -76 26 -95 8 -19 13 -38 12
-41 -2 -4 4 -15 13 -25 9 -11 21 -33 28 -49 6 -17 21 -44 32 -60 l21 -30 -6
35 c-5 30 -4 33 7 18 18 -23 47 -5 47 29 0 15 7 35 17 45 15 17 15 20 -4 41
-27 29 -34 73 -21 128 5 24 14 67 19 94 5 28 15 86 23 130 38 215 45 263 61
435 9 102 25 258 34 347 17 162 17 162 -3 172 -27 13 -75 10 -88 -6z m-518
-1153 c0 -5 -5 -10 -11 -10 -5 0 -7 5 -4 10 3 6 8 10 11 10 2 0 4 -4 4 -10z"/>
<path d="M5517 3970 c-21 -4 -50 -13 -65 -20 -15 -6 -40 -18 -57 -26 -16 -8
-45 -17 -62 -20 -20 -4 -33 -13 -33 -21 0 -12 7 -14 30 -9 17 3 30 1 30 -4 0
-15 35 -12 75 7 19 9 37 14 41 11 12 -13 7 -95 -9 -128 -30 -68 -66 -250 -48
-250 6 0 8 7 5 15 -4 8 -1 15 4 15 12 0 7 -59 -5 -71 -5 -3 -42 -9 -83 -13
l-75 -6 -17 30 c-9 16 -24 30 -32 30 -8 0 -16 5 -18 10 -2 6 -27 13 -55 17
-69 8 -135 -11 -160 -45 -28 -38 -70 -163 -88 -256 -8 -44 -18 -83 -22 -86 -9
-8 -165 -33 -200 -32 -12 0 -24 -5 -26 -12 -3 -8 29 -12 107 -14 69 -2 113 -8
118 -15 4 -6 5 -57 3 -112 -4 -99 -2 -106 10 -32 3 20 9 37 13 37 10 0 9 -112
-1 -127 -4 -7 -3 -22 3 -34 7 -11 9 -23 6 -27 -3 -3 -6 1 -6 9 0 25 -20 -13
-21 -41 -1 -17 -3 -19 -6 -7 -6 22 -19 22 -27 1 -10 -25 -26 -243 -19 -259 6
-16 53 -21 53 -6 0 5 -9 7 -20 4 -14 -4 -20 0 -20 11 0 21 18 20 42 -1 10 -9
21 -14 24 -11 3 3 7 37 10 74 2 38 11 105 20 148 11 56 12 81 4 86 -10 6 -2
54 31 173 6 21 13 57 15 80 3 23 10 44 15 48 6 3 61 9 122 13 62 3 129 11 150
17 21 5 46 7 57 4 16 -5 18 -9 8 -31 -9 -19 -9 -30 0 -45 10 -16 9 -19 -3 -19
-16 0 -16 1 -22 -50 -2 -19 -5 -48 -7 -65 -1 -16 -6 -47 -10 -67 -5 -20 -4
-43 0 -50 5 -7 9 -17 9 -23 0 -5 8 -27 18 -47 15 -29 29 -41 65 -53 26 -10 58
-21 71 -26 13 -6 26 -7 30 -3 3 4 0 9 -6 11 -7 3 -13 9 -13 15 0 6 8 7 18 3
51 -21 120 -16 208 14 48 17 93 36 98 42 8 7 6 8 -8 3 -15 -6 -17 -4 -11 15
11 35 -21 37 -106 7 -115 -41 -148 -47 -192 -34 -46 14 -61 31 -64 72 -9 165
-10 216 -3 216 5 0 7 35 4 78 -2 51 -1 69 5 52 6 -18 8 -6 8 45 0 39 7 93 16
120 9 28 17 61 19 75 l3 25 128 1 c127 1 155 7 127 24 -8 6 -10 10 -5 10 6 0
3 5 -5 10 -9 5 -62 10 -118 11 -56 1 -106 5 -110 8 -9 6 38 159 72 236 16 36
46 184 46 227 0 17 -26 49 -38 47 -4 -1 -24 -5 -45 -9z m-327 -510 c11 -6 17
-16 14 -24 -5 -14 52 -26 122 -26 33 0 34 -1 34 -40 0 -23 -5 -40 -11 -40 -7
0 -9 -9 -6 -21 3 -12 1 -45 -5 -74 -10 -51 -11 -52 -47 -52 -20 0 -81 -7 -136
-16 -55 -9 -114 -17 -132 -17 -31 0 -32 1 -26 38 11 67 77 225 111 265 17 19
53 22 82 7z m194 -145 c3 -8 1 -15 -4 -15 -6 0 -10 7 -10 15 0 8 2 15 4 15 2
0 6 -7 10 -15z m-34 -365 c0 -5 -4 -10 -10 -10 -5 0 -10 5 -10 10 0 6 5 10 10
10 6 0 10 -4 10 -10z m44 -101 c-8 -14 -24 -10 -24 6 0 9 6 12 15 9 8 -4 12
-10 9 -15z"/>
<path d="M0 3702 c1 -175 3 -221 15 -236 13 -18 15 6 15 211 0 196 -2 232 -15
237 -13 5 -15 -23 -15 -212z"/>
<path d="M4065 3824 c-162 -37 -222 -77 -120 -80 28 -1 58 2 68 8 10 5 21 7
25 3 5 -5 13 -76 13 -125 0 -35 -21 -350 -27 -407 -6 -59 -23 -87 -25 -43 -2
24 -3 28 -13 58 -7 20 -24 28 -50 23 -5 -1 -13 4 -17 11 -5 7 -16 13 -26 14
-10 1 -31 2 -46 3 -18 0 -26 5 -21 12 5 9 -11 11 -60 7 -87 -7 -95 4 -92 117
4 107 2 100 37 140 25 28 38 35 68 35 20 0 50 -7 66 -16 17 -8 42 -16 56 -16
22 -1 25 -5 21 -27 -3 -14 -10 -29 -16 -33 -6 -4 -7 -10 -3 -14 13 -13 27 11
33 59 6 45 5 49 -29 81 -31 29 -44 34 -105 39 -122 12 -189 -21 -222 -109 -18
-46 -30 -175 -22 -233 l7 -54 55 -18 c74 -25 113 -26 143 -6 25 16 26 16 70
-26 40 -36 46 -48 48 -87 1 -25 -1 -58 -6 -75 -9 -35 -72 -115 -89 -115 -7 0
-29 -9 -51 -20 l-39 -20 -46 21 c-25 12 -62 37 -83 56 -43 38 -59 37 -33 -1
15 -23 15 -25 0 -19 -9 3 -28 17 -42 29 -26 25 -42 30 -42 14 0 -16 91 -100
124 -114 109 -46 176 -48 263 -7 35 17 82 50 107 76 42 44 45 45 48 23 2 -18
9 -23 29 -21 24 2 26 -2 27 -39 1 -23 4 -44 7 -46 8 -9 16 4 18 29 0 13 5 27
11 31 6 4 5 12 -3 22 -9 11 -10 20 -3 29 20 24 34 103 37 207 3 103 14 149 45
180 8 8 26 29 40 46 14 18 35 35 46 38 18 5 25 0 39 -31 20 -41 20 -50 9 -350
-4 -139 -3 -193 5 -193 6 0 11 6 11 14 0 19 29 48 41 40 5 -3 7 -14 4 -25 -8
-23 9 -57 19 -40 4 6 9 53 12 103 2 51 14 156 25 233 11 77 18 154 14 171 -6
34 -31 91 -44 98 -17 11 -91 23 -85 15 3 -5 -2 -9 -10 -9 -9 0 -15 6 -13 13 1
9 -14 11 -56 9 l-58 -4 4 104 c2 56 9 123 16 147 22 83 5 93 -114 65z m25
-559 c0 -8 -4 -15 -10 -15 -5 0 -10 7 -10 15 0 8 5 15 10 15 6 0 10 -7 10 -15z"/>
<path d="M3120 3759 c-19 -10 -44 -18 -55 -19 -11 0 -26 -4 -34 -9 -15 -10 -7
-31 13 -31 12 0 76 -29 76 -34 0 -2 -9 -29 -19 -62 -17 -54 -32 -130 -45 -225
-2 -20 0 -41 6 -47 13 -13 2 -31 -24 -41 -19 -7 -19 -9 11 -41 17 -19 31 -43
31 -54 0 -10 8 -25 18 -33 16 -13 15 -13 -6 -8 -21 6 -23 4 -17 -17 4 -12 18
-33 31 -46 29 -28 31 -42 4 -35 -11 3 -20 0 -20 -6 0 -18 43 -111 52 -111 13
0 9 18 -4 23 -10 4 -10 6 0 6 7 1 18 -10 24 -24 6 -14 17 -25 25 -25 7 0 13
-9 13 -19 0 -12 9 -21 25 -25 14 -4 25 -12 25 -19 0 -29 217 -15 267 18 23 15
24 18 8 35 -22 24 -71 33 -98 18 -12 -7 -49 -18 -81 -24 -58 -11 -60 -11 -102
20 -45 34 -61 65 -41 81 25 19 29 46 8 52 -25 6 -51 80 -51 143 l0 46 128 13
c70 7 135 18 146 23 17 9 17 11 2 26 -18 19 -120 19 -219 2 -31 -6 -62 -8 -67
-5 -13 8 -13 62 1 70 6 4 8 13 5 20 -8 22 32 164 75 262 21 49 29 80 25 98 -6
23 -11 25 -54 24 -26 -1 -63 -9 -82 -20z"/>
<path d="M1834 3763 c-7 -2 -41 -7 -75 -11 -76 -8 -85 -28 -24 -49 66 -24 215
-5 215 28 0 16 -91 42 -116 32z"/>
<path d="M4710 3744 c-41 -13 -84 -24 -95 -24 -18 -1 -17 -2 5 -15 40 -23 145
-19 196 7 51 25 54 35 18 48 -34 13 -37 13 -124 -16z"/>
<path d="M2540 3749 c-121 -20 -209 -44 -199 -53 8 -8 85 -18 125 -17 l41 1 6
-49 c6 -48 -7 -220 -19 -271 -4 -14 -8 -63 -10 -110 -4 -102 -11 -193 -20
-277 -5 -45 -3 -63 5 -63 6 0 14 7 17 15 8 21 26 7 19 -15 -4 -12 1 -19 13
-22 27 -8 52 53 52 128 2 203 33 329 94 381 29 24 29 25 6 18 -22 -7 -23 -6
-11 9 7 9 19 16 26 16 7 0 24 9 38 20 14 11 32 20 41 20 9 0 16 5 16 10 0 13
3 13 -70 -10 -102 -32 -98 -37 -94 125 4 155 3 156 -76 144z"/>
<path d="M1667 3522 c-50 -12 -67 -20 -65 -32 2 -8 13 -16 25 -18 12 -2 27
-10 33 -18 7 -8 21 -14 31 -14 20 0 19 -17 -2 -100 -5 -19 -9 -54 -9 -77 0
-36 -15 -111 -36 -175 -8 -26 15 -22 27 5 8 18 9 14 4 -18 -2 -22 -5 -48 -5
-57 0 -10 -4 -18 -10 -18 -5 0 -9 10 -7 21 1 12 -3 24 -9 26 -12 4 -10 -61 2
-100 10 -32 37 -57 61 -57 12 0 25 -4 28 -10 3 -5 16 -10 28 -10 21 1 22 1 3
15 -11 8 -17 18 -13 21 3 4 -1 13 -9 21 -8 8 -12 19 -9 24 3 5 2 25 -4 44 -8
29 -6 44 11 82 16 37 18 47 7 54 -11 7 -11 9 2 9 21 0 28 23 38 131 7 67 17
101 44 156 27 53 33 73 24 82 -8 8 -7 11 4 12 24 2 -64 18 -96 17 -16 0 -61
-7 -98 -16z m4 -565 c-16 -16 -25 -1 -10 16 8 8 16 11 18 5 2 -5 -2 -15 -8
-21z"/>
<path d="M4573 3520 c-18 -4 -41 -14 -50 -21 -77 -62 -88 -86 -32 -74 18 4 29
3 29 -4 0 -6 7 -11 15 -11 19 0 19 -10 1 -35 -16 -25 -27 -67 -32 -125 -2 -25
-7 -69 -12 -99 -5 -30 -6 -66 -2 -80 8 -24 8 -24 9 -3 1 27 17 29 26 2 3 -11
10 -20 15 -20 4 0 11 -15 14 -34 4 -19 13 -36 20 -39 20 -8 28 33 10 51 -17
17 -14 48 17 179 23 99 47 157 95 229 l36 54 -23 20 c-25 20 -77 24 -136 10z"/>
<path d="M2808 3493 c6 -2 18 -2 25 0 6 3 1 5 -13 5 -14 0 -19 -2 -12 -5z"/>
<path d="M2793 3473 c-25 -5 -28 -11 -13 -33 9 -13 11 -13 19 0 10 15 5 -345
-5 -361 -16 -26 36 -287 73 -366 20 -44 77 -76 123 -70 19 3 29 3 23 0 -7 -2
-13 -9 -13 -15 0 -6 7 -7 18 -3 9 4 26 8 37 7 11 0 15 2 8 5 -7 2 -9 11 -6 19
4 10 -3 14 -29 14 -21 0 -41 7 -50 18 -17 19 -49 103 -53 142 -2 14 -9 50 -15
80 -12 57 -9 288 5 348 8 35 -11 96 -27 86 -6 -4 -7 8 -3 30 5 25 4 36 -5 36
-7 0 -10 7 -6 15 3 9 0 15 -9 15 -9 0 -12 6 -9 15 5 11 2 13 -10 9 -9 -3 -16
-1 -16 5 0 6 -3 10 -7 10 -5 -1 -18 -4 -30 -6z"/>
<path d="M2019 3445 c-51 -26 -58 -33 -89 -89 -22 -41 -42 -170 -33 -218 5
-28 48 -78 65 -78 5 0 8 -6 6 -12 -5 -15 64 -74 109 -93 19 -8 59 -13 93 -12
l60 3 0 -44 c0 -38 2 -43 15 -32 10 9 15 9 15 1 0 -20 2 -26 11 -38 7 -7 6
-14 -1 -18 -5 -3 -10 -16 -10 -28 0 -17 6 -23 23 -23 28 0 34 9 42 70 4 27 14
64 21 82 8 18 14 53 14 76 0 24 5 59 11 78 9 30 12 202 5 280 -2 17 -13 30
-37 41 -19 10 -37 15 -40 13 -4 -2 -14 5 -24 16 -23 26 -105 50 -164 50 -28
-1 -64 -10 -92 -25z m232 -115 c4 -30 5 -93 3 -139 -3 -67 -9 -92 -27 -118
-24 -35 -23 -35 -67 -37 -17 0 -32 5 -35 13 -4 11 -8 12 -17 3 -18 -18 -30
-14 -24 6 4 13 -7 29 -40 56 l-46 39 5 60 c10 112 80 176 187 173 l55 -1 6
-55z m-197 -256 c17 -6 22 -24 8 -24 -5 0 -17 7 -28 15 -19 15 -8 20 20 9z"/>
<path d="M2975 3270 c-18 -8 -17 -9 8 -9 15 -1 27 4 27 9 0 12 -8 12 -35 0z"/>
<path d="M4501 3024 c0 -11 3 -14 6 -6 3 7 2 16 -1 19 -3 4 -6 -2 -5 -13z"/>
<path d="M3315 3000 c-7 -12 2 -30 16 -30 12 0 12 27 0 35 -5 3 -12 1 -16 -5z"/>
<path d="M4360 2845 c0 -8 5 -15 10 -15 6 0 10 7 10 15 0 8 -4 15 -10 15 -5 0
-10 -7 -10 -15z"/>
<path d="M4860 2850 c0 -5 5 -10 10 -10 6 0 10 5 10 10 0 6 -4 10 -10 10 -5 0
-10 -4 -10 -10z"/>
<path d="M4296 2842 c-6 -10 0 -81 8 -89 3 -4 6 17 6 45 0 50 -3 61 -14 44z"/>
<path d="M4856 2811 c-4 -7 -5 -15 -2 -18 9 -9 19 4 14 18 -4 11 -6 11 -12 0z"/>
<path d="M530 2800 c0 -5 7 -10 15 -10 8 0 15 5 15 10 0 6 -7 10 -15 10 -8 0
-15 -4 -15 -10z"/>
<path d="M4360 2795 c0 -8 5 -15 10 -15 6 0 10 7 10 15 0 8 -4 15 -10 15 -5 0
-10 -7 -10 -15z"/>
<path d="M2254 2721 c-4 -16 -15 -38 -25 -47 -18 -16 -19 -16 -19 9 0 15 -2
27 -5 27 -2 0 -30 -26 -62 -58 -32 -32 -69 -66 -83 -75 -27 -17 -99 -22 -192
-13 -32 3 -58 4 -58 1 0 -2 18 -14 40 -25 78 -40 239 -43 295 -6 13 8 47 42
76 76 40 45 54 69 56 95 2 44 -15 56 -23 16z"/>
<path d="M4302 2720 c2 -19 9 -25 28 -26 42 -2 46 -4 28 -15 -24 -14 -23 -32
1 -24 11 3 22 1 26 -5 11 -17 26 -1 16 18 -5 9 -12 25 -15 34 -4 13 -14 17
-36 14 -20 -2 -34 2 -40 13 -9 13 -10 11 -8 -9z"/>
<path d="M4450 2710 c0 -9 32 -30 46 -30 4 0 -1 9 -11 20 -19 21 -35 26 -35
10z"/>
<path d="M4520 2660 c0 -5 5 -10 10 -10 6 0 10 5 10 10 0 6 -4 10 -10 10 -5 0
-10 -4 -10 -10z"/>
<path d="M2740 2010 c0 -5 6 -10 14 -10 8 0 18 5 21 10 3 6 -3 10 -14 10 -12
0 -21 -4 -21 -10z"/>
</g>
</svg>
